<svg id="Layer_1" data-name="Layer 1" xmlns="http://www.w3.org/2000/svg" viewBox="0 0 105.72 93.06"><rect width="105.72" height="93.06" fill="#231f20"/><path d="M52.16,17.31l-1.54.42-1.11.3-2.12.63q-7.44,2.2-9.87,2.2A7.21,7.21,0,0,1,33.73,20a2.74,2.74,0,0,1-1.45-2.45,10.6,10.6,0,0,1,2.1-5.71,10,10,0,0,1,4.49-4.07,23.36,23.36,0,0,1,5.42-1.28,66.31,66.31,0,0,1,8.15-.41q9.87,0,14.53,1.12c3.11.76,4.66,1.92,4.66,3.51a60.75,60.75,0,0,1-1.58,9q-1.58,7.2-3.23,12.82Q60.31,55.73,51.91,71.05a31.12,31.12,0,0,1-4,5.8,15.58,15.58,0,0,1-4.4,3.57,10.1,10.1,0,0,1-4.74,1.19q-3.51,0-6.87-5.11a19.14,19.14,0,0,1-3.35-10.65A22.91,22.91,0,0,1,30,58a18.32,18.32,0,0,1,3.84-6.39,18.81,18.81,0,0,1,2.92-2.25,5.17,5.17,0,0,1,2.32-1,1.23,1.23,0,0,1,1.1.78,5,5,0,0,1,.41,2.25,15.35,15.35,0,0,1-.34,2.47A79.74,79.74,0,0,0,38.69,68a20.2,20.2,0,0,0,.69,5.59,29.09,29.09,0,0,0,2.51-5.42Q44.36,60.27,46,53.6q2.61-11,3.81-18.12T52.16,17.31Z" transform="translate(5.83 2.29)" fill="#ffde17"/></svg>