<svg id="Layer_1" data-name="Layer 1" xmlns="http://www.w3.org/2000/svg" viewBox="0 0 75.42 36.96"><path d="M88.89,6.42c-1.68-.16-2.21-.39-2-2.07a3.05,3.05,0,0,1,6.08.56C92.76,6.59,90.57,6.57,88.89,6.42Z" transform="translate(-58.63 -1.58)" fill="#0a78ff"/><path d="M72.67,37.7l-.4-2.16h-.14a8.09,8.09,0,0,1-6.34,2.65c-4.49,0-7.16-3.18-7.16-6.63,0-5.61,5.16-8.31,13-8.26V23c0-1.15-.63-2.79-4-2.79a12.63,12.63,0,0,0-6.12,1.64l-1.27-4.33a18.65,18.65,0,0,1,8.61-1.91c7.39,0,9.74,4.25,9.74,9.33v7.51a32.19,32.19,0,0,0,.32,5.26Zm-.81-10.21c-3.63,0-6.44.8-6.44,3.41a2.45,2.45,0,0,0,2.72,2.56A3.75,3.75,0,0,0,71.72,31a4.83,4.83,0,0,0,.14-1.15Z" transform="translate(-58.63 -1.58)" fill="#0096df"/><path d="M78.88,6.92h6.89V38.31H78.88Z" transform="translate(-58.63 -1.58)" fill="#000b15"/><path d="M86.43,6.92h6.89V38.31H86.43Z" transform="translate(-58.63 -1.58)" fill="#001315"/><path d="M113,23.82c0-2.69-.09-5-.19-6.89h6l.32,3h.14a8.15,8.15,0,0,1,6.84-3.45c4.53,0,7.93,2.92,7.93,9.29V38.54h-6.89v-12c0-2.78-1-4.68-3.49-4.68a3.67,3.67,0,0,0-3.49,2.52,4.55,4.55,0,0,0-.27,1.68V38.54H113Z" transform="translate(-58.63 -1.58)" fill="#00024a"/><path d="M99.89,29.06c.22,2.79,3,4.11,6.25,4.11a20.06,20.06,0,0,0,6.11-.88l.91,4.55a22.25,22.25,0,0,1-8,1.33c-7.52,0-11.82-4.25-11.82-11,0-5.48,3.48-11.53,11.19-11.53,7.16,0,9.87,5.43,9.87,10.78a15.71,15.71,0,0,1-.22,2.65Zm8.1-4.59c0-1.64-.72-4.38-3.89-4.38-2.9,0-4.08,2.56-4.26,4.38Z" transform="translate(-58.63 -1.58)" fill="#003255"/><path d="M85.26,4.94c0,1.85-1.41,1.7-3.16,1.7s-3.16.15-3.16-1.7a3.17,3.17,0,1,1,6.32,0Z" transform="translate(-58.63 -1.58)" fill="#000e4a"/></svg>